<svg width="350" height="265" viewBox="0 0 350 265" fill="none" xmlns="http://www.w3.org/2000/svg">
<rect width="350" height="265" fill="#E5E5E5"/>
<g id="down-arrow 1" clip-path="url(#clip0)">
<rect width="350" height="265" fill="white"/>
<g id="g880">
<path id="path876" d="M336.903 116.941L174.899 239.613L12.8946 116.941C9.87228 114.73 5.05526 114.794 2.13566 117.083C-0.711888 119.315 -0.711888 122.854 2.13566 125.087L169.527 251.826C172.498 254.075 177.314 254.075 180.286 251.826L347.677 125.087C350.596 122.799 350.512 119.152 347.49 116.941C344.541 114.785 339.867 114.785 336.918 116.941H336.903Z" fill="#607D8B"/>
<path id="path878" d="M336.903 13.2455L174.899 135.917L12.8946 13.2455C9.87228 11.0349 5.05526 11.0987 2.13566 13.387C-0.711888 15.6197 -0.711888 19.1588 2.13566 21.3915L169.527 148.131C172.498 150.38 177.314 150.38 180.286 148.131L347.677 21.3915C350.699 19.181 350.783 15.5343 347.864 13.2455C344.945 10.9566 340.128 10.894 337.105 13.104C337.041 13.1504 336.979 13.1974 336.918 13.2455H336.903Z" fill="#1A1A1A"/>
<path id="path919" d="M171.941 252.89C170.157 252.362 2.01963 124.955 1.05746 123.402C0.0221044 121.731 0.0203489 120.456 1.05104 118.738C2.48299 116.35 5.73998 115.233 9.69453 115.773C11.1966 115.979 19.4216 122.102 93.1815 177.927L175.002 239.854L256.602 178.106C301.482 144.144 338.632 116.193 339.157 115.992C340.51 115.475 343.922 115.54 345.382 116.112C347.104 116.786 348.803 118.406 349.324 119.871C350.37 122.813 356.215 118.145 263.995 188.019C217.331 223.377 178.62 252.519 177.971 252.78C176.636 253.318 173.575 253.373 171.941 252.89V252.89Z" fill="#333333" fill-opacity="0.724696"/>
<path id="path921" d="M172.597 149.351C171.683 149.147 145.436 129.477 85.9981 84.4542C9.68256 26.6465 0.679347 19.7197 0.415777 18.6096C-0.0883305 16.4863 0.544507 15.0247 2.62119 13.5157C4.8114 11.9243 7.10797 11.4601 9.71316 12.0824C11.0471 12.4011 26.9288 24.2563 93.1349 74.3547L174.909 136.233L255.682 74.9296C300.107 41.2125 337.329 13.2025 338.397 12.6852C344.182 9.88453 351.4 13.9842 349.348 18.9046C348.911 19.9527 333.679 31.654 264.202 84.3143C205.231 129.012 179.058 148.636 177.84 149.068C175.952 149.739 174.648 149.809 172.597 149.351Z" fill="#333333" fill-opacity="0.724696"/>
<path id="path923" d="M167.174 145.328C156.825 137.718 10.0588 26.5626 5.47796 22.865C0.534376 18.8746 -0.0524616 17.9792 0.900437 15.8805C1.97735 13.5088 4.5838 12.0755 7.82019 12.0755H9.78489L19.9674 19.4896C25.5677 23.5674 62.5934 51.4817 102.247 81.5215C141.9 111.561 174.538 136.139 174.775 136.139C175.012 136.139 211.782 108.464 256.486 74.6385C301.19 40.8132 338.395 12.8988 339.164 12.6067C341.094 11.8736 344.332 11.9252 346.022 12.7158C348.509 13.8797 349.175 14.7388 349.294 16.9331L349.402 18.9469L339.151 27.0078C320.52 41.6578 178.746 148.656 177.484 149.019C176.808 149.213 175.449 149.373 174.464 149.373C172.767 149.373 172.391 149.164 167.174 145.328Z" fill="#333333" fill-opacity="0.724696"/>
<path id="path925" d="M172.815 149.015C171.223 148.527 5.25976 22.9386 2.41056 20.0651C0.362119 17.9992 0.193585 16.8555 1.64757 14.8876C2.80387 13.3226 5.69939 12.0755 8.17665 12.0755C9.74386 12.0755 10.3515 12.4596 19.5541 19.2657C26.6922 24.5449 166.619 130.134 172.976 135.038C173.488 135.433 174.239 135.806 174.643 135.865C175.133 135.938 195.242 120.97 234.947 90.98C319.173 27.3616 338.665 12.7762 339.962 12.403C341.728 11.8947 343.654 12.0128 345.675 12.7535C348.056 13.6264 348.857 14.5896 349.187 16.9786L349.454 18.9134L340.145 26.164C324.366 38.4537 189.597 140.269 179.793 147.306C177.201 149.167 175.041 149.696 172.815 149.015V149.015Z" fill="#333333" fill-opacity="0.724696"/>
<path id="path927" d="M172.815 149.016C171.025 148.47 2.64753 20.745 1.57454 19.119C0.412348 17.3578 0.42645 16.5403 1.64754 14.8876C2.80437 13.3219 5.69963 12.0755 8.17984 12.0755C9.76177 12.0755 10.3907 12.4852 21.7421 20.9102C28.2889 25.7693 65.046 53.4836 103.425 82.4976C141.803 111.512 173.46 135.374 173.774 135.524C174.75 135.993 175.147 135.846 177.622 134.102C178.943 133.17 205.785 112.963 237.27 89.1969C319.735 26.9494 338.704 12.7651 339.973 12.3999C341.728 11.8946 343.658 12.0142 345.675 12.7535C348.056 13.6264 348.857 14.5896 349.187 16.9786L349.454 18.9134L340.163 26.164C328.195 35.504 189.578 140.278 182.589 145.266C178.064 148.497 177.041 149.072 175.598 149.2C174.668 149.282 173.416 149.199 172.815 149.016V149.016Z" fill="#333333" fill-opacity="0.724696"/>
<path id="path929" d="M87.5856 189.156C41.2941 154.083 2.79743 124.732 2.03736 123.931C0.405542 122.212 0.20949 120.388 1.46448 118.6C2.73061 116.796 4.70088 115.958 7.67851 115.958H10.2028L16.2437 120.318C19.5662 122.716 56.6387 150.662 98.627 182.421L174.969 240.163L257.089 178.061L339.208 115.958H342.166C345.099 115.958 345.141 115.971 346.993 117.435C349.002 119.022 349.774 120.771 349.021 122.023C347.895 123.894 335.334 133.577 259.361 191.141L177.818 252.924H174.785H171.752L87.5856 189.156Z" fill="#333333" fill-opacity="0.724696"/>
<path id="Down_arrow" d="M87.7755 188.99C41.3865 153.827 2.92197 124.535 2.29888 123.898C0.61175 122.174 0.412569 120.725 1.6195 118.955C2.99518 116.938 4.36522 116.272 7.59009 116.05L10.289 115.865L75.4941 165.116C111.357 192.205 148.368 220.218 157.74 227.368L174.782 240.369L257.271 178.125L339.76 115.88L342.39 116.024C344.69 116.15 345.211 116.314 346.552 117.328C348.19 118.569 349.366 120.621 349.017 121.631C348.466 123.228 345.464 125.542 255.008 194.118L177.438 252.924H174.779H172.119L87.7755 188.99Z" fill="#4D4D4D" fill-opacity="0.724696"/>
<path id="Upper_arrow" d="M173.034 148.973C171.302 148.222 166.186 144.385 85.3652 83.2207C36.953 46.5832 2.81976 20.5034 2.01624 19.5373C0.482263 17.6928 0.343057 16.8009 1.35734 15.3158C2.35992 13.8479 3.26041 13.2109 5.18759 12.6063C7.73293 11.8078 9.14441 11.9351 11.0179 13.1323C13.8092 14.9159 29.5611 26.7442 102.785 82.0413C141.573 111.333 173.542 135.412 173.827 135.549C174.76 135.998 175.186 135.82 178.059 133.777C179.621 132.667 205.577 113.13 235.738 90.3611C325.353 22.7122 339.064 12.4973 340.59 12.2435C342.798 11.8763 345.195 12.3674 347.045 13.5665C347.989 14.1786 348.78 14.8751 348.802 15.1143C348.824 15.3535 348.98 16.3175 349.149 17.2564L349.457 18.9636L339.902 26.3544C328.467 35.2003 244.44 98.8208 205.759 127.92C182.599 145.343 177.931 148.707 176.493 149.009C174.389 149.451 174.129 149.449 173.034 148.973Z" fill="#4D4D4D" fill-opacity="0.724696"/>
</g>
</g>
<defs>
<clipPath id="clip0">
<rect width="350" height="265" fill="white"/>
</clipPath>
</defs>
</svg>
