<?xml version="1.0" encoding="UTF-8" standalone="no"?>
<svg
   xmlns:dc="http://purl.org/dc/elements/1.1/"
   xmlns:cc="http://creativecommons.org/ns#"
   xmlns:rdf="http://www.w3.org/1999/02/22-rdf-syntax-ns#"
   xmlns:svg="http://www.w3.org/2000/svg"
   xmlns="http://www.w3.org/2000/svg"
   xmlns:sodipodi="http://sodipodi.sourceforge.net/DTD/sodipodi-0.dtd"
   xmlns:inkscape="http://www.inkscape.org/namespaces/inkscape"
   inkscape:version="1.0 (4035a4fb49, 2020-05-01)"
   sodipodi:docname="down-arrow.svg"
   xml:space="preserve"
   style="enable-background:new 0 0 490.667 490.667;"
   viewBox="0 0 490.667 490.667"
   y="0px"
   x="0px"
   id="Capa_1"
   version="1.1"><metadata
   id="metadata917"><rdf:RDF><cc:Work
       rdf:about=""><dc:format>image/svg+xml</dc:format><dc:type
         rdf:resource="http://purl.org/dc/dcmitype/StillImage" /></cc:Work></rdf:RDF></metadata><defs
   id="defs915" /><sodipodi:namedview
   inkscape:current-layer="g880"
   inkscape:window-maximized="1"
   inkscape:window-y="-9"
   inkscape:window-x="-9"
   inkscape:cy="244.10836"
   inkscape:cx="245.3335"
   inkscape:zoom="1.6324717"
   showgrid="false"
   id="namedview913"
   inkscape:window-height="1001"
   inkscape:window-width="1920"
   inkscape:pageshadow="2"
   inkscape:pageopacity="0"
   guidetolerance="10"
   gridtolerance="10"
   objecttolerance="10"
   borderopacity="1"
   bordercolor="#666666"
   pagecolor="#ffffff" />
<g
   id="g880">
	<path
   id="path876"
   d="M472.306,216.525L245.192,443.661L18.077,216.525c-4.237-4.093-10.99-3.975-15.083,0.262   c-3.992,4.134-3.992,10.687,0,14.82l234.667,234.667c4.165,4.164,10.917,4.164,15.083,0L487.41,231.608   c4.093-4.237,3.975-10.99-0.262-15.083c-4.134-3.993-10.687-3.993-14.821,0L472.306,216.525z"
   style="fill:#607D8B;" />
	<path
   id="path878"
   d="M472.306,24.525L245.192,251.661L18.077,24.525c-4.237-4.093-10.99-3.975-15.083,0.262   c-3.992,4.134-3.992,10.687,0,14.821l234.667,234.667c4.165,4.164,10.917,4.164,15.083,0L487.41,39.608   c4.237-4.093,4.354-10.845,0.262-15.083s-10.845-4.354-15.083-0.262c-0.089,0.086-0.176,0.173-0.262,0.262L472.306,24.525z"
   style="fill:#1a1a1a" />
<path
   id="path919"
   d="M 241.04552,468.24455 C 238.54388,467.26666 2.8313716,231.36362 1.482497,228.48788 c -1.45147374,-3.09448 -1.45393479,-5.45491 -0.009,-8.63656 2.0074615,-4.4203 6.5734484,-6.48838 12.117347,-5.48832 2.105799,0.37987 13.63642,11.71759 117.040906,115.08287 L 245.33673,444.10737 359.7322,329.77575 c 62.91751,-62.88239 114.99757,-114.63573 115.73347,-115.00742 1.8976,-0.95844 6.6802,-0.8373 8.72682,0.22105 2.41491,1.2488 4.79683,4.24846 5.52712,6.96056 1.4666,5.44651 9.66012,-3.19625 -119.62288,126.18153 -65.41911,65.46706 -119.6882,119.42665 -120.59798,119.91019 -1.8723,0.99513 -6.16307,1.09811 -8.45323,0.20289 z"
   style="fill:#333333;fill-opacity:0.724696;stroke-width:0" /><path
   id="path921"
   d="M 241.96438,276.53443 C 240.68367,276.15662 203.88725,239.73661 120.56124,156.3732 13.574027,49.337937 0.95237913,36.512426 0.58287889,34.456952 -0.12383185,30.525628 0.76334682,27.819243 3.6746604,25.025311 c 3.0704635,-2.946665 6.2900495,-3.806047 9.9422776,-2.653824 1.87009,0.589985 24.13471,22.5409 116.949472,115.301673 L 245.20605,252.24612 358.44172,138.73761 C 420.72134,76.307922 472.90289,24.445433 474.40073,23.487628 c 8.10955,-5.185715 18.22946,2.405064 15.3524,11.515584 -0.61284,1.940636 -21.96677,23.606529 -119.36701,121.110868 -82.67192,82.76028 -119.36323,119.09574 -121.07093,119.89674 -2.64753,1.24184 -4.47488,1.372 -7.35081,0.52361 z"
   style="fill:#333333;fill-opacity:0.724696;stroke-width:0" /><path
   id="path923"
   d="M 234.3619,269.08512 C 219.85392,254.99548 14.101407,49.18256 7.6795658,42.336231 0.74912526,34.947684 -0.07356513,33.289772 1.2623088,29.403975 2.7720444,25.012447 6.4260366,22.358733 10.963153,22.358733 h 2.754324 l 14.274859,13.727786 c 7.851173,7.550282 59.757723,59.235708 115.347884,114.856511 55.59017,55.62079 101.34513,101.12872 101.67768,101.12872 0.33257,0 51.88048,-51.24287 114.55093,-113.87303 62.67044,-62.63017 114.82845,-114.315599 115.90669,-114.856511 2.70566,-1.357334 7.24554,-1.261914 9.61432,0.202078 3.48676,2.154936 4.42121,3.745672 4.58703,7.808583 l 0.15218,3.728698 -14.37138,14.925322 c -26.11892,27.125662 -224.87321,225.24022 -226.64178,225.91229 -0.94844,0.36041 -2.85345,0.65529 -4.23336,0.65529 -2.37952,0 -2.9066,-0.38622 -10.22063,-7.48935 z"
   style="fill:#333333;fill-opacity:0.724696;stroke-width:0" /><path
   id="path925"
   d="M 242.27066,275.91176 C 240.03871,275.00949 7.3736855,42.472561 3.3793695,37.152 0.50764824,33.326773 0.27138002,31.209267 2.3097287,27.565562 3.9307479,24.667865 7.9900012,22.358733 11.46288,22.358733 c 2.197086,0 3.048967,0.71104 15.950115,13.313073 C 37.419927,45.446725 233.58447,240.95295 242.4962,250.0332 c 0.71823,0.73182 1.7699,1.42096 2.33703,1.53142 0.68731,0.13387 28.87805,-27.57947 84.54007,-83.10841 C 447.44977,50.662054 474.77686,23.656068 476.59439,22.965046 c 2.47562,-0.941228 5.1763,-0.722416 8.00907,0.648905 3.33876,1.616265 4.46121,3.399767 4.92355,7.823177 l 0.37444,3.582459 -13.05016,13.424893 c -22.12018,22.755353 -211.05457,211.27475 -224.79796,224.3042 -3.63404,3.44524 -6.66245,4.42444 -9.78267,3.16308 z"
   style="fill:#333333;fill-opacity:0.724696;stroke-width:0" /><path
   id="path927"
   d="M 242.27066,275.91405 C 239.76089,274.90323 3.7116287,38.410918 2.2073959,35.400208 0.57810858,32.139202 0.59787823,30.625626 2.3097287,27.565562 c 1.6217765,-2.89905 5.6806535,-5.206829 9.1576723,-5.206829 2.217722,0 3.099442,0.758599 19.012954,16.358028 9.178061,8.996915 60.708098,60.312066 114.511195,114.033669 53.80309,53.72161 98.18364,97.90387 98.62345,98.18282 1.36735,0.86723 1.92502,0.59486 5.39391,-2.6345 1.85302,-1.72508 39.48258,-39.13993 83.62123,-83.14414 115.608,-115.25584 142.20075,-141.519082 143.97929,-142.195284 2.46093,-0.935643 5.16668,-0.714072 7.99403,0.654625 3.33876,1.616265 4.46121,3.399767 4.92355,7.823177 l 0.37444,3.582459 -13.02466,13.424893 C 460.09861,65.738234 265.77041,259.73466 255.9726,268.97152 c -6.34427,5.98105 -7.77835,7.04665 -9.80109,7.28275 -1.30319,0.15212 -3.05857,-0.001 -3.90085,-0.34022 z"
   style="fill:#333333;fill-opacity:0.724696;stroke-width:0" /><path
   id="path929"
   d="M 122.78679,350.23578 C 57.890522,285.29591 3.921758,230.95039 2.8562107,229.46796 0.56856078,226.2853 0.29371388,222.90691 2.0530899,219.59609 3.82808,216.25587 6.590214,214.7051 10.764574,214.7051 h 3.538865 l 8.468766,8.07305 c 4.657821,4.44018 56.629936,56.18458 115.493595,114.98755 L 245.29061,444.6802 360.414,329.69265 475.53738,214.7051 h 4.14755 c 4.11085,0 4.17072,0.0242 6.76709,2.73391 2.81527,2.93818 3.89854,6.17663 2.84186,8.49579 -1.57859,3.46465 -19.18763,21.39341 -125.69417,127.97639 L 249.28467,468.30827 h -4.25232 -4.25233 z"
   style="fill:#333333;fill-opacity:0.724696;stroke-width:0" /><path
   id="path931"
   d="M 123.05302,349.92949 C 58.019919,284.82117 4.0963192,230.58592 3.2228044,229.40673 c -2.36519218,-3.19287 -2.64442476,-5.87626 -0.952422,-9.15266 1.9285787,-3.7345 3.8492428,-4.96871 8.3702036,-5.37866 l 3.783623,-0.34309 91.411351,91.19277 c 50.27624,50.15602 102.16192,102.02499 115.3015,115.26439 l 23.89016,24.07163 115.64207,-115.2502 115.64208,-115.25019 3.68668,0.26667 c 3.2249,0.23327 3.95572,0.53572 5.83465,2.41465 2.29694,2.29693 3.94576,6.09706 3.45676,7.96698 -0.77309,2.95634 -4.98122,7.24182 -131.79281,134.21528 L 248.75149,468.30827 h -3.72823 -3.72822 z"
   style="fill:#4d4d4d;fill-opacity:0.724696;stroke-width:0" /><path
   id="path933"
   d="M 242.57694,275.83492 C 240.14933,274.4433 232.97725,267.33876 119.6739,154.08932 51.804572,86.252281 3.9530037,37.963656 2.8265501,36.174727 0.67605478,32.759512 0.48090107,31.108182 1.9028283,28.358478 3.3083475,25.640503 4.5707542,24.461024 7.2724837,23.341554 10.840803,21.86301 12.81957,22.09878 15.446028,24.315432 c 3.91316,3.30259 25.995869,25.20357 128.648832,127.590128 54.37781,54.23668 99.19522,98.81975 99.59426,99.0735 1.30741,0.83138 1.90445,0.50125 5.93236,-3.28029 2.18993,-2.05598 38.57747,-38.23077 80.8612,-80.38842 C 456.1143,42.053334 475.3354,23.139737 477.4748,22.669847 c 3.09614,-0.680026 6.45546,0.229339 9.04941,2.449662 1.32395,1.133251 2.43239,2.422872 2.4632,2.865823 0.0308,0.442951 0.25004,2.227775 0.48718,3.966274 l 0.43117,3.160907 -13.39474,13.684714 C 460.47929,65.176039 342.68129,182.97406 288.45457,236.8537 c -32.46777,32.25998 -39.01156,38.48791 -41.02813,39.0478 -2.94922,0.81884 -3.31363,0.81384 -4.8495,-0.0666 z"
   style="fill:#4d4d4d;fill-opacity:0.724696;stroke-width:0" /></g>
<g
   id="g882">
</g>
<g
   id="g884">
</g>
<g
   id="g886">
</g>
<g
   id="g888">
</g>
<g
   id="g890">
</g>
<g
   id="g892">
</g>
<g
   id="g894">
</g>
<g
   id="g896">
</g>
<g
   id="g898">
</g>
<g
   id="g900">
</g>
<g
   id="g902">
</g>
<g
   id="g904">
</g>
<g
   id="g906">
</g>
<g
   id="g908">
</g>
<g
   id="g910">
</g>
</svg>
