<svg height="512" viewBox="0 0 64 64" width="512" xmlns="http://www.w3.org/2000/svg"><g id="Line"><path d="m63 41v-19a3 3 0 0 0 -3-3h-38a3 3 0 0 0 -3 3v19zm-22-3h-2a1 1 0 0 1 0-2h2a1 1 0 0 1 0 2zm-8-6a1 1 0 0 1 0-2h11a1 1 0 0 1 0 2zm17 6h-5a1 1 0 0 1 0-2h5a1 1 0 0 1 0 2zm6 0h-2a1 1 0 0 1 0-2h2a1 1 0 0 1 0 2zm0-6h-2a1 1 0 0 1 0-2h2a1 1 0 0 1 0 2zm-5-8h5a1 1 0 0 1 0 2h-5a1 1 0 0 1 0-2zm0 7a1 1 0 0 1 -1 1h-2a1 1 0 0 1 0-2h2a1 1 0 0 1 1 1zm-9-7h5a1 1 0 0 1 0 2h-5a1 1 0 0 1 0-2zm-6 0h2a1 1 0 0 1 0 2h-2a1 1 0 0 1 0-2zm-9 0h5a1 1 0 0 1 0 2h-5a1 1 0 0 1 0-2zm-1 6h3a1 1 0 0 1 0 2h-3a1 1 0 0 1 0-2zm0 6h9a1 1 0 0 1 0 2h-9a1 1 0 0 1 0-2zm24 26a1 1 0 0 1 -1 1h-16a1 1 0 0 1 0-2h1.22l2-8h9.56l2 8h1.22a1 1 0 0 1 1 1zm13-19v5a3 3 0 0 1 -3 3h-38a3 3 0 0 1 -3-3v-5z" fill="#c4a2fc"/><path d="m48 1h-44a3 3 0 0 0 -3 3v38a3 3 0 0 0 3 3h44a3 3 0 0 0 3-3v-38a3 3 0 0 0 -3-3zm-44 2h44a1 1 0 0 1 1 1v3h-46v-3a1 1 0 0 1 1-1zm44 40h-44a1 1 0 0 1 -1-1v-33h46v33a1 1 0 0 1 -1 1zm-30.21-25.39-6.52 8.39 6.52 8.39a1 1 0 0 1 -1.58 1.22l-7-9a1 1 0 0 1 0-1.22l7-9a1 1 0 1 1 1.58 1.22zm25 7.78a1 1 0 0 1 0 1.22c-7.27 9.11-6.89 9.39-7.79 9.39a1 1 0 0 1 -.61-.21 1 1 0 0 1 -.18-1.4l6.52-8.39-6.52-8.39a1 1 0 0 1 1.58-1.22zm-12.79-8.07-6 18a1 1 0 0 1 -1.9-.64l6-18a1 1 0 1 1 1.9.64z" fill="#151a6a"/></g></svg>